<?xml version="1.0" encoding="UTF-8"?>
<svg id="Lag_1" xmlns="http://www.w3.org/2000/svg" xmlns:xlink="http://www.w3.org/1999/xlink" viewBox="0 0 505.69 372.52">
  <defs>
    <style>
      .cls-1 {
        fill: #1d1d1b;
        stroke: #1d1d1b;
        stroke-miterlimit: 10;
        stroke-width: 4px;
      }
    </style>
  </defs>
  <image width="2000" height="2000" transform="translate(0 -81.65) scale(.25)" xlink:href="../../../../../Downloads/mouth-pop-art-b.png"/>
  <g>
    <path class="cls-1" d="M15.04,256.9c-.96-1-1.92-2.01-2.87-3.02,11.34-9.79,22.47-19.72,33.38-29.77-2.46-2.61-4.88-5.27-7.25-7.98.77-.66,1.55-1.33,2.32-1.99,5.47,6.27,11.22,12.26,17.22,17.96-.71.73-1.43,1.45-2.14,2.18-2.59-2.46-5.14-4.98-7.64-7.56-10.79,10.18-21.79,20.24-33.02,30.17Z"/>
    <path class="cls-1" d="M42.31,281.98c.98-1.34,1.97-2.68,2.95-4.02-.04-.04-.09-.07-.13-.11-4.2,1.41-8.07.65-11.45-2.3-2.26-1.98-3.41-4.26-3.44-6.79-.03-2.53,1.09-4.88,3.3-7.06,2.41-2.38,5.23-3.4,8.46-3.14,3.23.26,6.55,1.79,10.07,4.53,1.23.95,2.47,1.89,3.71,2.82.65-.73,1.3-1.47,1.94-2.2,2.18-2.48,3.38-4.61,3.63-6.36.25-1.76-.49-3.34-2.19-4.79-1.8-1.54-4.07-2.64-6.83-3.34.17-.94.35-1.88.52-2.82,3.18.84,5.94,2.25,8.32,4.28,2.57,2.19,3.86,4.41,3.83,6.75-.03,2.33-1.42,5.14-4.22,8.41-5.24,6.1-10.54,12.17-15.89,18.21-.86-.69-1.72-1.38-2.58-2.08ZM36.19,274.22c2.17,1.88,4.63,2.52,7.32,1.9,2.69-.61,5.37-2.44,8.04-5.43.82-.92,1.64-1.84,2.45-2.76-1.21-.91-2.42-1.82-3.62-2.75-2.78-2.14-5.28-3.29-7.55-3.4-2.27-.11-4.37.8-6.31,2.76-1.81,1.83-2.71,3.57-2.68,5.21.03,1.64.81,3.14,2.34,4.47Z"/>
    <path class="cls-1" d="M71.68,303.17c4.76-6.6,9.46-13.23,14.11-19.87,3.35-4.81,3.27-8.29-.1-10.54-2.58-1.72-5.09-2.14-7.61-1.23-2.52.91-5.25,3.23-8.2,7-3.99,5.1-8.02,10.19-12.09,15.26-1.09-.78-2.18-1.57-3.26-2.37,7.52-9.14,14.92-18.34,22.2-27.59.82.6,1.63,1.19,2.45,1.78-.92,1.36-1.84,2.71-2.75,4.07.09.07.19.13.28.2,1.8-.9,3.65-1.28,5.57-1.14,1.92.14,3.63.72,5.16,1.74,2.64,1.76,4.12,3.78,4.44,6.15.32,2.36-.63,5.22-2.91,8.58-4.58,6.72-9.21,13.41-13.9,20.09-1.13-.7-2.26-1.41-3.38-2.12Z"/>
    <path class="cls-1" d="M95.07,317.46c-8.01-4.21-8.47-11.62-1.85-21.79,3.24-5.03,6.57-8.34,9.98-10.01,3.41-1.66,6.76-1.58,10.2.22,1.63.85,2.96,2.04,4.01,3.58,1.05,1.54,1.65,3.22,1.8,5.06.09.04.18.09.28.13.57-1.17,1.14-2.35,1.7-3.52,2.47-4.63,4.91-9.27,7.34-13.92,1.02.5,2.05.99,3.08,1.47-7.57,14.93-15.33,29.8-23.3,44.61-1-.47-2-.94-3-1.42.69-1.49,1.38-2.98,2.07-4.46-.11-.05-.23-.11-.34-.16-1.85,1.1-3.8,1.68-5.85,1.73-2.05.05-4.1-.45-6.11-1.5ZM96.68,315.26c2.85,1.49,5.64,1.61,8.3.38,2.66-1.23,5.03-3.81,7.15-7.7.32-.59.64-1.18.96-1.76,2.53-4.67,3.66-8.43,3.47-11.28-.2-2.85-1.66-4.95-4.41-6.39-2.64-1.38-5.18-1.27-7.71.36-2.53,1.63-5.13,4.56-7.79,8.82-2.69,4.3-4.12,7.9-4.21,10.84-.1,2.93,1.32,5.2,4.25,6.73Z"/>
    <path class="cls-1" d="M123.35,329.87c-1.25-.51-2.5-1.03-3.74-1.56,7.36-15.08,14.53-30.21,21.52-45.39,1.05.44,2.1.88,3.15,1.31-6.8,15.26-13.77,30.47-20.93,45.63Z"/>
    <path class="cls-1" d="M156.24,306.97c-2.25-.75-4.77-.93-7.61-.55-.2-.92-.39-1.85-.57-2.77,1.36-.17,2.78-.22,4.27-.16,1.49.06,3.15.4,5,1.01,4.27,1.41,6.44,3.98,6.53,7.85,3.26-2.87,6.84-3.73,10.9-2.65,3.35.89,5.63,2.85,6.91,5.94,1.27,3.09,1.37,6.91.19,11.45-.24.91-.47,1.82-.71,2.73-6.77-1.53-13.48-3.27-20.12-5.23-3.07,9.72-1.24,15.64,5.64,17.43,1.37.36,2.94.56,4.68.6,1.74.04,3.42-.1,5.03-.44-.24.91-.49,1.81-.73,2.72-3.14.7-6.44.62-9.85-.27-2.91-.76-5.27-2.11-7.05-4.01-1.78-1.91-2.77-4.19-3-6.83-2.14,2.24-4.39,3.62-6.73,4.14-2.34.52-4.87.32-7.55-.59-2.87-.98-4.82-2.64-5.82-4.94-1.01-2.3-.88-4.86.33-7.66,1.32-3.06,3.55-5.03,6.64-5.97,3.1-.95,6.76-.77,11.07.45,1.51.42,3.01.83,4.52,1.23.32-.91.64-1.82.96-2.73,1.03-2.95,1.31-5.31.86-7.08-.45-1.77-1.7-2.98-3.76-3.66ZM143.25,335.19c2.74.93,5.27.61,7.52-.94,2.25-1.55,4.02-4.19,5.34-7.91.4-1.14.81-2.28,1.21-3.42-1.47-.39-2.94-.79-4.41-1.19-3.43-.96-6.17-1.12-8.28-.44-2.11.68-3.72,2.31-4.8,4.93-.97,2.34-1.14,4.26-.47,5.75.67,1.49,1.97,2.57,3.9,3.23ZM173.87,312.37c-4.78-1.28-8.68,1.88-11.9,9.62,5.35,1.58,10.75,3.01,16.18,4.31.03-.12.07-.25.1-.37.97-3.54,1.03-6.54.23-8.98-.8-2.45-2.32-3.96-4.62-4.57Z"/>
    <path class="cls-1" d="M215.9,318.31c-.1.7-.2,1.41-.3,2.11-1.91-.05-3.82-.12-5.73-.21.63.93,1.07,2.18,1.32,3.77.25,1.59.26,3.18.02,4.78-.51,3.32-1.87,5.89-4.14,7.67-2.27,1.78-5.02,2.43-8.2,1.91-.33-.05-.65-.11-.98-.16-.28-.07-.56-.14-.84-.21-1.44.49-2.61,1.02-3.51,1.59-.9.57-1.45,1.33-1.65,2.26-.21.96.13,1.79,1.01,2.5.88.71,2.18,1.21,3.88,1.49.95.16,1.89.31,2.84.46,4.04.64,7.05,1.85,9.06,3.71,2.01,1.86,2.83,4.28,2.41,7.26-.48,3.34-2.43,5.82-5.93,7.35-3.5,1.53-7.92,1.91-13.15,1.03-4.37-.74-7.55-2.15-9.5-4.15-1.95-2-2.53-4.47-1.82-7.36.52-2.11,1.71-3.76,3.53-4.97,1.82-1.21,4.38-1.95,7.66-2.26-1.3-.71-2.28-1.56-2.94-2.53-.66-.97-.86-2.02-.6-3.14.23-1.02.88-1.84,1.95-2.47,1.06-.63,2.5-1.26,4.31-1.88-2.08-1.19-3.47-2.8-4.2-4.78-.73-1.99-.8-4.18-.25-6.56.83-3.59,2.42-6.23,4.71-7.96,2.29-1.73,4.99-2.31,8.17-1.78,1.7.28,3.09.73,4.17,1.34,2.89.44,5.79.84,8.7,1.19ZM184.79,354.69c-.5,2.14-.12,3.96,1.17,5.46,1.29,1.5,3.53,2.54,6.72,3.08,3.95.66,7.24.39,9.8-.75,2.56-1.14,4.02-3.02,4.43-5.58.33-2.06-.19-3.75-1.53-5.08-1.34-1.33-3.43-2.2-6.3-2.65-.99-.15-1.97-.31-2.95-.48-2.75-.46-5.18-.16-7.31.93-2.13,1.08-3.49,2.76-4.03,5.07ZM193.72,326.28c-.6,2.77-.42,4.99.58,6.65,1,1.66,2.6,2.69,4.78,3.05,4.7.77,7.55-1.85,8.51-7.72.47-2.83.26-5.12-.6-6.89-.86-1.76-2.36-2.81-4.5-3.17-2.2-.37-4.03.15-5.54,1.56-1.51,1.41-2.59,3.58-3.23,6.51Z"/>
    <path class="cls-1" d="M231.54,355.04c-4.94-.3-8.59-2.18-10.84-5.51-2.26-3.34-2.97-7.78-2.27-13.3.74-5.86,2.39-10.21,4.85-13.09,2.47-2.88,5.61-4.16,9.54-3.89,3.42.23,6.03,1.72,7.9,4.52,1.87,2.8,2.76,6.49,2.58,11.11-.04.93-.07,1.86-.11,2.79-6.95-.21-13.9-.64-20.82-1.3-.51,5-.02,8.83,1.55,11.48,1.56,2.64,4.25,4.12,8,4.35,2.9.18,6.01-.38,9.27-1.69-.04.97-.09,1.95-.13,2.92-3.03,1.28-6.23,1.82-9.53,1.62ZM232.38,321.96c-4.99-.35-8.17,3.5-9.61,11.7,5.56.52,11.14.9,16.72,1.14.2-3.79-.37-6.83-1.65-9.14-1.28-2.31-3.09-3.53-5.47-3.7Z"/>
    <path class="cls-1" d="M264.55,319.76c1.29-.05,2.51.05,3.64.29-.24,1.02-.49,2.03-.74,3.05-.94-.28-1.9-.4-2.87-.36-1.41.05-2.71.68-3.91,1.91-1.2,1.22-2.14,2.9-2.83,5.05-.69,2.15-1.03,4.51-1.01,7.09.05,6.08.09,12.16.14,18.24-1.36.02-2.73.02-4.09.02.07-11.48.13-22.96.19-34.44.99,0,1.99,0,2.98,0,.14,2.01.28,4.02.42,6.03.09,0,.18,0,.27,0,1.95-4.48,4.5-6.76,7.8-6.87Z"/>
    <path class="cls-1" d="M297.89,352.12c-1.14-7.82-2.26-15.63-3.36-23.45-.81-5.65-3.24-8.19-7.31-7.74-3.11.34-5.27,1.6-6.54,3.85-1.26,2.25-1.72,5.68-1.32,10.32.54,6.27,1.09,12.54,1.64,18.81-1.36.11-2.72.21-4.08.31-.85-11.43-1.69-22.86-2.5-34.3,1.02-.07,2.03-.14,3.05-.22.23,1.58.47,3.16.71,4.74.12,0,.23-.02.35-.03.73-1.8,1.86-3.23,3.4-4.33,1.53-1.09,3.21-1.74,5.05-1.94,3.18-.35,5.67.23,7.53,1.79,1.85,1.55,3.1,4.27,3.71,8.17,1.21,7.82,2.44,15.64,3.68,23.46-1.33.19-2.67.37-4,.55Z"/>
    <path class="cls-1" d="M327.14,347.66c-4.82,1.06-8.9.26-12.09-2.29-3.2-2.56-5.26-6.58-6.29-12.01-1.09-5.77-.84-10.35.65-13.76,1.49-3.41,4.12-5.47,7.96-6.29,3.35-.71,6.29,0,8.94,2.15,2.64,2.15,4.61,5.42,5.85,9.85.25.89.5,1.79.75,2.68-6.72,1.69-13.51,3.17-20.33,4.42,1.05,4.89,2.71,8.4,5.03,10.49,2.31,2.09,5.35,2.76,9.01,1.95,2.83-.62,5.63-2,8.34-4.13.26.94.52,1.87.78,2.81-2.5,2.04-5.39,3.42-8.61,4.13ZM317.76,316.01c-4.89,1.03-6.77,5.54-5.65,13.73,5.49-1.01,10.95-2.16,16.37-3.46-.97-3.65-2.44-6.39-4.36-8.24-1.93-1.85-4.03-2.52-6.36-2.03Z"/>
    <path class="cls-1" d="M382.87,329.6c-3.32-7.18-6.61-14.36-9.85-21.56-2.35-5.19-5.39-7.01-9.19-5.55-2.91,1.11-4.65,2.87-5.24,5.35-.59,2.47-.08,5.88,1.61,10.2,2.28,5.86,4.59,11.72,6.92,17.57-1.28.45-2.56.89-3.84,1.33-4.1-10.7-8.13-21.43-12.08-32.16.96-.32,1.92-.65,2.88-.98.66,1.46,1.33,2.91,2,4.36.11-.04.22-.08.33-.11.2-1.9.9-3.57,2.08-5.01,1.18-1.44,2.62-2.48,4.34-3.14,2.97-1.14,5.54-1.22,7.76-.21,2.22,1.01,4.17,3.29,5.84,6.87,3.34,7.17,6.73,14.34,10.15,21.49-1.23.52-2.46,1.04-3.7,1.55Z"/>
    <path class="cls-1" d="M411.51,296.48c3.07,4.9,4.43,9.24,3.94,13.03-.49,3.79-2.78,6.81-6.85,8.9-4.02,2.07-7.9,2.24-11.48.53-3.59-1.7-6.66-5.17-9.29-10.33-5.32-10.61-4.09-17.57,3.33-21.33,3.5-1.79,6.96-1.9,10.51-.32,3.55,1.58,6.84,4.72,9.84,9.5ZM391.44,306.94c2.31,4.39,4.76,7.38,7.37,8.93,2.61,1.55,5.45,1.57,8.43.03,5.86-3.03,6.04-8.93.8-17.48-5.2-8.5-10.3-11.3-15.56-8.61-2.77,1.41-4.2,3.49-4.3,6.3-.1,2.81.96,6.42,3.27,10.82Z"/>
    <path class="cls-1" d="M427.43,303.82c-1.27-1.87-.98-3.37.85-4.52.75-.47,1.54-.67,2.37-.6.83.07,1.61.62,2.33,1.63.7.98.93,1.86.68,2.63-.25.77-.76,1.4-1.52,1.88-1.88,1.18-3.46.82-4.72-1.03Z"/>
    <path class="cls-1" d="M443.43,272.44c-5.88-7.15-9.06-13.31-9.79-18.34-.72-5.05.86-9.1,4.74-12.39,1.42-1.21,2.75-2.04,3.99-2.49.68.74,1.36,1.48,2.04,2.22-1.43.56-2.85,1.45-4.29,2.66-2.69,2.28-3.7,5.32-3.05,9.25.66,3.92,2.97,8.54,7.07,13.82.08-.06.17-.13.25-.19-.33-1.77-.19-3.48.41-5.12.6-1.64,1.66-3.09,3.19-4.36,2.69-2.25,5.63-3.12,8.92-2.63,3.28.49,6.49,2.3,9.62,5.49,3.23,3.3,4.95,6.65,5.06,10.09.11,3.44-1.37,6.5-4.42,9.07-3.41,2.86-7.23,3.68-11.31,2.45-4.09-1.23-8.22-4.43-12.41-9.53ZM465.2,277.27c2.13-1.79,3.07-3.9,2.84-6.28-.23-2.38-1.73-4.98-4.43-7.81-2.59-2.72-5.08-4.34-7.47-4.9-2.39-.56-4.58.02-6.65,1.73-2,1.66-3.07,3.62-3.2,5.9-.13,2.29.63,4.44,2.34,6.45,1.71,2.01,3.61,3.64,5.7,4.87,2.1,1.23,4.08,1.85,5.92,1.85,1.84,0,3.5-.61,4.94-1.82Z"/>
    <path class="cls-1" d="M457.22,224.11c2.34-2.41,4.88-3.77,7.68-4.07,2.8-.3,5.44.58,7.93,2.72,3.83,3.28,4.9,8.22,2.81,14.83,3.06-1.04,5.5-1.73,7.34-2.02,1.84-.29,3.55-.28,5.14.02,1.59.3,3.06,1,4.41,2.11,2.71,2.22,4.12,5.01,4.13,8.41.01,3.39-1.37,6.61-4.16,9.56-3.01,3.17-6.34,4.99-9.87,5.43-3.54.45-6.55-.6-9.03-3.03-1.9-1.86-3.05-4.02-3.48-6.48-.44-2.46-.04-5.59,1.11-9.4-6.39,1.62-11.19.61-14.43-2.63-2.23-2.24-3.26-4.8-3.16-7.66.11-2.86,1.31-5.42,3.6-7.78ZM476.63,255.2c1.92,1.83,4.12,2.66,6.6,2.45,2.48-.21,4.79-1.42,6.89-3.62,2.05-2.16,3.04-4.47,2.95-6.87-.08-2.4-1.26-4.52-3.47-6.39-2.87-2.42-7.29-2.46-13.29-.5-.7.24-1.41.47-2.11.7-1.01,3.4-1.37,6.15-1.01,8.27.36,2.11,1.5,4.11,3.45,5.97ZM459.22,226.1c-1.61,1.66-2.4,3.43-2.35,5.36.05,1.93.95,3.77,2.75,5.53,1.54,1.51,3.3,2.43,5.29,2.73,1.99.3,4.59-.04,7.8-1.11.97-2.97,1.22-5.51.8-7.58-.42-2.08-1.45-3.82-3.07-5.24-1.88-1.66-3.8-2.44-5.76-2.39-1.96.06-3.77.96-5.47,2.71Z"/>
  </g>
</svg>